<svg height="504pt" viewBox="-4 0 504 504" width="504pt" xmlns="http://www.w3.org/2000/svg" xmlns:xlink="http://www.w3.org/1999/xlink"><linearGradient id="a" gradientUnits="userSpaceOnUse" x1="248" x2="248" y1="504" y2="0"><stop offset="0" stop-color="#9f2fff"/><stop offset="1" stop-color="#0bb1d3"/></linearGradient><path d="m480 144c0-22.054688-17.945312-40-40-40h-103.550781c-.226563-5.335938-.449219-10.671875-.449219-16 0-48.519531-39.480469-88-88-88s-88 39.480469-88 88c0 5.328125-.222656 10.664062-.449219 16h-103.550781c-22.054688 0-40 17.945312-40 40v280h-16v40c0 22.054688 17.945312 40 40 40h416c22.054688 0 40-17.945312 40-40v-40h-16zm-40-24c13.230469 0 24 10.769531 24 24v280h-16v-272c0-8.824219-7.175781-16-16-16h-92.871094c-.671875-5.328125-1.199218-10.65625-1.640625-16zm-264-32c0-39.695312 32.296875-72 72-72s72 32.304688 72 72c0 58.726562 13.128906 117.902344 37.960938 171.128906l16.96875 36.351563c.703124 1.503906 1.070312 3.175781 1.070312 5.128906 0 6.277344-5.113281 11.390625-11.398438 11.390625-4.496093 0-8.585937-2.65625-10.410156-6.769531l-23.046875-51.832031c-3.609375-8.140626-11.6875-13.398438-20.601562-13.398438-12.421875 0-22.542969 10.113281-22.542969 22.542969v73.457031h16v-73.457031c0-3.605469 2.9375-6.542969 6.542969-6.542969 2.585937 0 4.929687 1.519531 5.976562 3.886719l23.046875 51.839843c4.394532 9.890626 14.21875 16.273438 25.035156 16.273438 15.109376 0 27.398438-12.289062 27.398438-27.695312 0-3.96875-.886719-7.976563-2.566406-11.585938l-16.96875-36.359375c-14.808594-31.742187-25.265625-65.6875-31.082032-100.359375h90.617188v272h-368v-272h90.617188c-5.816407 34.671875-16.273438 68.617188-31.082032 100.359375l-16.96875 36.359375c-1.679687 3.617188-2.566406 7.617188-2.566406 11.890625 0 15.101563 12.289062 27.390625 27.398438 27.390625 10.824218 0 20.640624-6.382812 25.035156-16.273438l23.046875-51.847656c1.039062-2.359375 3.382812-3.878906 5.976562-3.878906 3.605469 0 6.542969 2.9375 6.542969 6.542969v73.457031h16v-73.457031c0-12.429688-10.121094-22.542969-22.542969-22.542969-8.90625 0-16.992187 5.257812-20.601562 13.382812l-23.046875 51.847657c-1.824219 4.113281-5.914063 6.769531-10.410156 6.769531-6.285157 0-11.398438-5.113281-11.398438-11.695312 0-1.65625.367188-3.320313 1.070312-4.824219l16.96875-36.359375c24.832032-53.21875 37.960938-112.394532 37.960938-171.121094zm128 352v8c0 4.40625-3.585938 8-8 8h-96c-4.414062 0-8-3.59375-8-8v-8zm-272-296c0-13.230469 10.769531-24 24-24h102.511719c-.449219 5.34375-.976563 10.671875-1.640625 16h-92.871094c-8.824219 0-16 7.175781-16 16v272h-16zm448 320c0 13.230469-10.769531 24-24 24h-416c-13.230469 0-24-10.769531-24-24v-24h160v8c0 13.230469 10.769531 24 24 24h96c13.230469 0 24-10.769531 24-24v-8h160zm-208-224v136h-16v-136c0-4.40625-3.585938-8-8-8s-8 3.59375-8 8v136h-16v-136c0-13.230469 10.769531-24 24-24s24 10.769531 24 24zm-48 152h16v16h-16zm32 0h16v16h-16zm-64-40h16v16h-16zm96 0h16v16h-16zm-40-208c22.054688 0 40 17.945312 40 40h-16c0-13.230469-10.769531-24-24-24s-24 10.769531-24 24h-16c0-22.054688 17.945312-40 40-40zm-56-48h16c0 4.40625 3.585938 8 8 8s8-3.59375 8-8h16c0 13.230469-10.769531 24-24 24s-24-10.769531-24-24zm64 0h16c0 4.40625 3.585938 8 8 8s8-3.59375 8-8h16c0 13.230469-10.769531 24-24 24s-24-10.769531-24-24zm0 0" fill="url(#a)"/></svg>